<svg xmlns="http://www.w3.org/2000/svg" viewBox="0 0 512 512" role="img" aria-label="Drive Linux unofficial app icon">
  <defs>
    <linearGradient id="folder" x1="76" y1="98" x2="432" y2="418" gradientUnits="userSpaceOnUse">
      <stop offset="0" stop-color="#0f766e"/>
      <stop offset="0.55" stop-color="#0891b2"/>
      <stop offset="1" stop-color="#2563eb"/>
    </linearGradient>
    <linearGradient id="panel" x1="124" y1="188" x2="402" y2="380" gradientUnits="userSpaceOnUse">
      <stop offset="0" stop-color="#ecfeff"/>
      <stop offset="1" stop-color="#dbeafe"/>
    </linearGradient>
  </defs>
  <rect width="512" height="512" rx="112" fill="#0f172a"/>
  <path fill="url(#folder)" d="M80 154c0-24 19-43 43-43h84c13 0 26 5 35 14l31 29h116c24 0 43 19 43 43v191c0 24-19 43-43 43H123c-24 0-43-19-43-43V154Z"/>
  <path fill="#164e63" d="M80 198h352v46H80z" opacity=".55"/>
  <path fill="url(#panel)" d="M116 226c0-18 14-32 32-32h216c18 0 32 14 32 32v132c0 18-14 32-32 32H148c-18 0-32-14-32-32V226Z"/>
  <path fill="#0f172a" fill-opacity=".14" d="M154 252h154v28H154zm0 56h204v28H154z"/>
  <circle cx="356" cy="204" r="82" fill="#0f172a" opacity=".92"/>
</svg>
